<?xml version="1.0" encoding="utf-8"?><svg xmlns="http://www.w3.org/2000/svg" xmlns:xlink="http://www.w3.org/1999/xlink"><symbol viewBox="0 0 14 8" id="arrow-small" xmlns="http://www.w3.org/2000/svg"><path d="M0 1A1 1 0 011.71.29L7 5.59l5.29-5.3a1.004 1.004 0 011.42 1.42l-6 6a1 1 0 01-1.42 0l-6-6A1 1 0 010 1z"/></symbol><symbol viewBox="0 0 25 23" id="cart" xmlns="http://www.w3.org/2000/svg"><g transform="translate(1 -1)"><circle cx="19" cy="20" r="2"/><circle cx="9" cy="20" r="2"/><path d="M21.05 7l-15-.83L5 2.68A1 1 0 004 2H1a1 1 0 100 2h2.28l.93 2.78 2.5 9.5a1 1 0 001.06.62l13.36-2.78a1 1 0 00.87-1V8a1 1 0 00-.95-1z"/></g></symbol><symbol viewBox="0 0 10 8" id="check" xmlns="http://www.w3.org/2000/svg"><path d="M8.498 0L10 1.607 3.896 8 0 4.372l1.41-1.698 2.4 2.235z"/></symbol><symbol viewBox="0 0 20 20" id="close" xmlns="http://www.w3.org/2000/svg"><path d="M11.41 10l8.3-8.29A1.004 1.004 0 1018.29.29L10 8.59 1.71.29A1.004 1.004 0 10.29 1.71L8.59 10l-8.3 8.29a1 1 0 000 1.42 1 1 0 001.42 0l8.29-8.3 8.29 8.3a1 1 0 001.42 0 1 1 0 000-1.42L11.41 10z" fill="#202020"/></symbol><symbol viewBox="0 0 22 21" id="favourites" xmlns="http://www.w3.org/2000/svg"><path d="M15.742 2.165c-2.028-.176-3.3.73-4.005 1.404a4.097 4.097 0 00-.738.983c-.2-.36-.44-.7-.737-.983-.707-.674-1.972-1.73-4.005-1.549-1.999.18-3.607 1.687-4.094 3.845C.775 11.995 8.634 17.469 11.046 19c2.413-1.53 10.177-6.933 8.79-13.063-.49-2.158-2.096-3.593-4.094-3.772z"/></symbol><symbol viewBox="0 0 21 21" id="search" xmlns="http://www.w3.org/2000/svg"><path d="M20.71 19.29l-4.54-4.54a8.53 8.53 0 10-1.42 1.42l4.54 4.54a1 1 0 001.42 0 1 1 0 000-1.42zM3 9.5A6.5 6.5 0 119.5 16 6.51 6.51 0 013 9.5z"/></symbol></svg>